<svg width="1920" height="1080" viewBox="0 0 1920 1080" fill="none" xmlns="http://www.w3.org/2000/svg">
<rect width="1920" height="1080" fill="#1E1E1E"/>
<rect width="1920" height="1080" fill="#4A75D3"/>
<path d="M767.44 588L756.048 522.208L745.68 588H738L752.08 498.4C746.704 499.595 742.565 502.197 739.664 506.208C736.763 510.133 735.312 515.68 735.312 522.848C735.312 525.749 735.483 528.139 735.824 530.016C736.251 531.808 736.72 533.259 737.232 534.368C737.744 535.477 738.256 536.288 738.768 536.8C739.365 537.227 739.792 537.525 740.048 537.696C735.44 537.696 731.728 536.544 728.912 534.24C726.096 531.851 724.688 528.139 724.688 523.104C724.688 518.923 725.712 514.955 727.76 511.2C729.808 507.36 732.411 504.032 735.568 501.216C738.725 498.4 742.181 496.181 745.936 494.56C749.776 492.853 753.488 492 757.072 492C758.437 492 759.76 492.128 761.04 492.384C762.405 492.64 763.685 493.109 764.88 493.792L777.68 568.16L792.656 493.792H807.248L814.416 588H799.824L794.704 520.928L781.136 588H767.44ZM864.202 540C864.202 545.973 861.727 550.965 856.778 554.976C851.914 558.987 845.13 561.461 836.426 562.4C836.767 565.813 837.365 568.587 838.218 570.72C839.157 572.853 840.266 574.56 841.546 575.84C842.826 577.035 844.277 577.888 845.898 578.4C847.605 578.827 849.354 579.04 851.146 579.04C855.242 579.04 859.082 577.973 862.666 575.84C866.25 573.707 869.151 570.123 871.37 565.088H875.466C874.357 568.245 872.821 571.275 870.858 574.176C868.895 576.992 866.591 579.509 863.946 581.728C861.301 583.861 858.442 585.568 855.37 586.848C852.298 588.128 849.141 588.768 845.898 588.768C842.911 588.768 840.01 588.256 837.194 587.232C834.463 586.208 832.031 584.544 829.898 582.24C827.765 579.851 826.015 576.779 824.65 573.024C823.37 569.269 822.73 564.661 822.73 559.2C822.73 555.616 823.114 551.733 823.882 547.552C824.735 543.371 826.101 539.488 827.978 535.904C829.941 532.32 832.458 529.333 835.53 526.944C838.687 524.555 842.57 523.36 847.178 523.36C849.311 523.36 851.359 523.616 853.322 524.128C855.37 524.555 857.205 525.408 858.826 526.688C860.447 527.883 861.727 529.547 862.666 531.68C863.69 533.813 864.202 536.587 864.202 540ZM836.298 557.408C842.357 556.469 847.135 554.336 850.634 551.008C854.218 547.68 856.01 543.584 856.01 538.72C856.01 535.477 855.455 533.173 854.346 531.808C853.237 530.357 851.658 529.632 849.61 529.632C847.391 529.632 845.429 530.485 843.722 532.192C842.101 533.899 840.735 536.117 839.626 538.848C838.517 541.493 837.663 544.48 837.066 547.808C836.554 551.051 836.298 554.251 836.298 557.408ZM884.063 524V533.728C885.343 531.424 886.623 529.589 887.903 528.224C889.268 526.773 890.634 525.707 891.999 525.024C893.364 524.341 894.644 523.915 895.839 523.744C897.119 523.488 898.314 523.36 899.423 523.36C903.263 523.36 906.335 524.085 908.639 525.536C911.028 526.987 912.82 528.864 914.015 531.168C915.21 533.387 915.978 535.861 916.319 538.592C916.746 541.237 916.959 543.797 916.959 546.272C916.959 547.808 916.916 549.515 916.831 551.392C916.746 553.184 916.66 555.061 916.575 557.024C916.49 558.901 916.404 560.821 916.319 562.784C916.234 564.661 916.191 566.411 916.191 568.032C916.191 568.715 916.234 569.696 916.319 570.976C916.404 572.171 916.618 573.365 916.959 574.56C917.3 575.755 917.855 576.821 918.623 577.76C919.391 578.613 920.5 579.04 921.951 579.04C923.914 579.04 925.663 577.931 927.199 575.712C928.82 573.493 930.143 569.952 931.167 565.088H935.903C934.964 570.464 933.77 574.731 932.319 577.888C930.868 580.96 929.332 583.307 927.711 584.928C926.09 586.549 924.468 587.573 922.847 588C921.226 588.512 919.732 588.768 918.367 588.768C915.636 588.768 913.332 588.256 911.455 587.232C909.578 586.123 908.042 584.672 906.847 582.88C905.652 581.088 904.756 578.997 904.159 576.608C903.647 574.219 903.391 571.744 903.391 569.184C903.391 568.416 903.391 567.008 903.391 564.96C903.476 562.827 903.519 560.565 903.519 558.176C903.604 555.787 903.647 553.525 903.647 551.392C903.732 549.259 903.775 547.765 903.775 546.912C903.775 544.181 903.562 541.92 903.135 540.128C902.708 538.336 902.111 536.928 901.343 535.904C900.575 534.88 899.679 534.155 898.655 533.728C897.716 533.301 896.692 533.088 895.583 533.088C892.938 533.088 890.634 534.155 888.671 536.288C886.794 538.421 885.258 542.005 884.063 547.04V588H871.263V524H884.063ZM974.277 524V567.52C974.277 568.544 974.32 569.739 974.405 571.104C974.49 572.384 974.704 573.621 975.045 574.816C975.472 576.011 976.069 577.035 976.837 577.888C977.69 578.656 978.885 579.04 980.421 579.04C981.104 579.04 981.829 578.955 982.597 578.784C983.45 578.613 984.133 578.443 984.645 578.272C984.73 578.699 984.773 579.083 984.773 579.424C984.858 579.765 984.901 580.149 984.901 580.576C984.901 583.136 983.92 585.141 981.957 586.592C979.994 588.043 977.776 588.768 975.301 588.768C972.656 588.768 970.266 587.872 968.133 586.08C966 584.203 964.549 581.088 963.781 576.736C962.16 580.917 960.026 583.989 957.381 585.952C954.736 587.829 951.962 588.768 949.061 588.768C946.586 588.768 944.24 588.427 942.021 587.744C939.802 587.061 937.882 585.952 936.261 584.416C934.64 582.795 933.36 580.747 932.421 578.272C931.482 575.712 931.013 572.597 931.013 568.928V524H943.813V567.52C943.813 571.701 944.538 574.688 945.989 576.48C947.44 578.187 949.274 579.04 951.493 579.04C952.688 579.04 953.882 578.741 955.077 578.144C956.272 577.461 957.338 576.523 958.277 575.328C959.216 574.133 959.984 572.683 960.581 570.976C961.178 569.269 961.477 567.307 961.477 565.088V524H974.277ZM955.461 492H966.341L955.973 516.192H948.933L955.461 492ZM1069.72 588V541.92C1066.47 540.384 1062.76 539.104 1058.58 538.08C1054.48 536.971 1050.3 536.16 1046.04 535.648C1045.01 539.403 1044.07 543.285 1043.22 547.296C1042.37 551.221 1041.64 555.147 1041.04 559.072C1040.45 562.912 1039.98 566.709 1039.64 570.464C1039.29 574.133 1039.12 577.632 1039.12 580.96C1039.12 584.715 1039.38 588.384 1039.89 591.968C1040.49 595.552 1041.73 599.093 1043.6 602.592C1041.64 602.592 1039.59 602.379 1037.46 601.952C1035.33 601.525 1033.36 600.544 1031.57 599.008C1029.78 597.557 1028.29 595.424 1027.09 592.608C1025.98 589.877 1025.43 586.165 1025.43 581.472C1025.43 578.485 1025.64 575.157 1026.07 571.488C1026.49 567.819 1027.13 563.979 1027.99 559.968C1028.84 555.957 1029.87 551.861 1031.06 547.68C1032.34 543.413 1033.75 539.232 1035.28 535.136C1032.81 535.221 1030.46 535.435 1028.24 535.776C1026.11 536.117 1024.23 536.629 1022.61 537.312C1021.08 537.909 1019.84 538.635 1018.9 539.488C1017.96 540.341 1017.49 541.28 1017.49 542.304C1017.49 542.645 1017.53 542.901 1017.62 543.072C1019.84 543.755 1020.95 545.163 1020.95 547.296C1020.95 548.832 1020.39 549.899 1019.28 550.496C1018.17 551.093 1016.98 551.392 1015.7 551.392C1013.57 551.392 1011.6 550.795 1009.81 549.6C1007.93 548.32 1007 546.144 1007 543.072C1007 541.024 1007.64 539.189 1008.92 537.568C1010.11 535.947 1011.77 534.581 1013.91 533.472C1016.13 532.277 1018.69 531.381 1021.59 530.784C1024.57 530.187 1027.82 529.888 1031.32 529.888C1032.25 529.888 1033.24 529.931 1034.26 530.016C1035.28 530.016 1036.31 530.059 1037.33 530.144C1039.47 525.024 1041.85 520.16 1044.5 515.552C1047.15 510.859 1050 506.805 1053.08 503.392C1056.15 499.893 1059.39 497.12 1062.8 495.072C1066.22 493.024 1069.8 492 1073.56 492C1074.84 492 1076.41 492.128 1078.29 492.384C1080.25 492.64 1082.09 493.109 1083.8 493.792V588H1069.72ZM1047.32 531.424C1051.58 532.192 1055.68 533.173 1059.6 534.368C1063.53 535.477 1066.9 536.715 1069.72 538.08V498.144C1067.58 498.315 1065.49 499.296 1063.44 501.088C1061.4 502.795 1059.39 505.141 1057.43 508.128C1055.55 511.115 1053.76 514.613 1052.05 518.624C1050.35 522.549 1048.77 526.816 1047.32 531.424ZM1108.44 519.264V529.12C1110.06 527.413 1111.94 526.048 1114.07 525.024C1116.29 523.915 1118.85 523.36 1121.75 523.36C1124.74 523.36 1127.51 524 1130.07 525.28C1132.63 526.56 1134.85 528.523 1136.73 531.168C1138.69 533.728 1140.23 537.013 1141.34 541.024C1142.45 544.949 1143 549.643 1143 555.104C1143 565.771 1141 574.048 1136.99 579.936C1132.97 585.824 1127.64 588.768 1120.99 588.768C1118.17 588.768 1115.74 588.256 1113.69 587.232C1111.73 586.123 1109.98 584.587 1108.44 582.624V616.8L1095.51 620V519.264H1108.44ZM1117.27 531.68C1115.4 531.68 1113.69 532.235 1112.15 533.344C1110.7 534.368 1109.47 535.861 1108.44 537.824V576.224C1109.64 577.76 1110.96 578.869 1112.41 579.552C1113.95 580.235 1115.44 580.576 1116.89 580.576C1119.02 580.576 1120.9 579.893 1122.52 578.528C1124.14 577.163 1125.51 575.328 1126.62 573.024C1127.81 570.635 1128.71 567.861 1129.31 564.704C1129.9 561.547 1130.2 558.176 1130.2 554.592C1130.2 550.155 1129.77 546.485 1128.92 543.584C1128.15 540.597 1127.13 538.251 1125.85 536.544C1124.57 534.752 1123.16 533.515 1121.62 532.832C1120.09 532.064 1118.64 531.68 1117.27 531.68ZM1162.57 519.264V529.12C1164.19 527.413 1166.06 526.048 1168.2 525.024C1170.42 523.915 1172.98 523.36 1175.88 523.36C1178.86 523.36 1181.64 524 1184.2 525.28C1186.76 526.56 1188.98 528.523 1190.85 531.168C1192.82 533.728 1194.35 537.013 1195.46 541.024C1196.57 544.949 1197.13 549.643 1197.13 555.104C1197.13 565.771 1195.12 574.048 1191.11 579.936C1187.1 585.824 1181.77 588.768 1175.11 588.768C1172.29 588.768 1169.86 588.256 1167.81 587.232C1165.85 586.123 1164.1 584.587 1162.57 582.624V616.8L1149.64 620V519.264H1162.57ZM1171.4 531.68C1169.52 531.68 1167.81 532.235 1166.28 533.344C1164.83 534.368 1163.59 535.861 1162.57 537.824V576.224C1163.76 577.76 1165.08 578.869 1166.53 579.552C1168.07 580.235 1169.56 580.576 1171.01 580.576C1173.15 580.576 1175.02 579.893 1176.65 578.528C1178.27 577.163 1179.63 575.328 1180.74 573.024C1181.94 570.635 1182.83 567.861 1183.43 564.704C1184.03 561.547 1184.33 558.176 1184.33 554.592C1184.33 550.155 1183.9 546.485 1183.05 543.584C1182.28 540.597 1181.25 538.251 1179.97 536.544C1178.69 534.752 1177.29 533.515 1175.75 532.832C1174.21 532.064 1172.76 531.68 1171.4 531.68Z" fill="white"/>
</svg>
