<svg width="1920" height="1080" viewBox="0 0 1920 1080" fill="none" xmlns="http://www.w3.org/2000/svg">
<rect width="1920" height="1080" fill="#18181B"/>
<path d="M752.696 495.144V585H730.808V531.112L710.712 585H693.048L672.824 530.984V585H650.936V495.144H676.792L702.008 557.352L726.968 495.144H752.696ZM835.764 548.136C835.764 550.184 835.636 552.317 835.38 554.536H785.844C786.185 558.973 787.593 562.387 790.068 564.776C792.628 567.08 795.743 568.232 799.412 568.232C804.873 568.232 808.671 565.928 810.804 561.32H834.1C832.905 566.013 830.729 570.237 827.572 573.992C824.5 577.747 820.617 580.691 815.924 582.824C811.231 584.957 805.983 586.024 800.18 586.024C793.183 586.024 786.953 584.531 781.492 581.544C776.031 578.557 771.764 574.291 768.692 568.744C765.62 563.197 764.084 556.712 764.084 549.288C764.084 541.864 765.577 535.379 768.564 529.832C771.636 524.285 775.903 520.019 781.364 517.032C786.825 514.045 793.097 512.552 800.18 512.552C807.092 512.552 813.236 514.003 818.612 516.904C823.988 519.805 828.169 523.944 831.156 529.32C834.228 534.696 835.764 540.968 835.764 548.136ZM813.364 542.376C813.364 538.621 812.084 535.635 809.524 533.416C806.964 531.197 803.764 530.088 799.924 530.088C796.255 530.088 793.14 531.155 790.58 533.288C788.105 535.421 786.569 538.451 785.972 542.376H813.364ZM890.831 512.808C899.194 512.808 905.85 515.539 910.799 521C915.834 526.376 918.351 533.8 918.351 543.272V585H896.591V546.216C896.591 541.437 895.354 537.725 892.879 535.08C890.404 532.435 887.076 531.112 882.895 531.112C878.714 531.112 875.386 532.435 872.911 535.08C870.436 537.725 869.199 541.437 869.199 546.216V585H847.311V513.576H869.199V523.048C871.418 519.891 874.404 517.416 878.159 515.624C881.914 513.747 886.138 512.808 890.831 512.808ZM1004.09 513.576V585H982.201V575.272C979.982 578.429 976.953 580.989 973.113 582.952C969.358 584.829 965.177 585.768 960.569 585.768C955.108 585.768 950.286 584.573 946.105 582.184C941.924 579.709 938.681 576.168 936.377 571.56C934.073 566.952 932.921 561.533 932.921 555.304V513.576H954.681V552.36C954.681 557.139 955.918 560.851 958.393 563.496C960.868 566.141 964.196 567.464 968.377 567.464C972.644 567.464 976.014 566.141 978.489 563.496C980.964 560.851 982.201 557.139 982.201 552.36V513.576H1004.09Z" fill="white"/>
<path d="M1041.7 568.104H1070.37V585H1019.81V495.144H1041.7V568.104ZM1091.82 506.152C1087.98 506.152 1084.82 505.043 1082.35 502.824C1079.96 500.52 1078.76 497.704 1078.76 494.376C1078.76 490.963 1079.96 488.147 1082.35 485.928C1084.82 483.624 1087.98 482.472 1091.82 482.472C1095.57 482.472 1098.65 483.624 1101.04 485.928C1103.51 488.147 1104.75 490.963 1104.75 494.376C1104.75 497.704 1103.51 500.52 1101.04 502.824C1098.65 505.043 1095.57 506.152 1091.82 506.152ZM1102.7 513.576V585H1080.81V513.576H1102.7ZM1162.08 512.808C1170.44 512.808 1177.1 515.539 1182.05 521C1187.08 526.376 1189.6 533.8 1189.6 543.272V585H1167.84V546.216C1167.84 541.437 1166.6 537.725 1164.13 535.08C1161.65 532.435 1158.33 531.112 1154.15 531.112C1149.96 531.112 1146.64 532.435 1144.16 535.08C1141.69 537.725 1140.45 541.437 1140.45 546.216V585H1118.56V513.576H1140.45V523.048C1142.67 519.891 1145.65 517.416 1149.41 515.624C1153.16 513.747 1157.39 512.808 1162.08 512.808ZM1248.46 585L1226.7 555.048V585H1204.81V490.28H1226.7V542.632L1248.33 513.576H1275.34L1245.64 549.416L1275.6 585H1248.46Z" fill="#FC7F09"/>
</svg>
