<svg width="1920" height="1080" viewBox="0 0 1920 1080" fill="none" xmlns="http://www.w3.org/2000/svg">
<rect width="1920" height="1080" fill="#333"/>
<path d="M842.541 632.537H696.312C684.552 632.537 674.996 622.957 674.996 611.165V521.698C674.996 519.723 675.878 517.837 677.407 516.584L755.865 451.731C763.715 445.231 775.138 445.231 782.988 451.731L861.446 516.584C862.975 517.837 863.857 519.723 863.857 521.698V611.165C863.857 622.957 854.302 632.537 842.541 632.537ZM688.227 524.823V611.165C688.227 615.631 691.858 619.272 696.312 619.272H842.541C846.995 619.272 850.626 615.631 850.626 611.165V524.823L774.579 461.96C771.595 459.499 767.273 459.499 764.289 461.96L688.241 524.823H688.227Z" fill="#aaa"/>
<path d="M765.7 588.97L761.628 581.556C758.541 575.926 753.925 571.298 748.309 568.203L740.9 564.105C737.974 562.499 737.974 558.283 740.9 556.677L748.309 552.579C753.925 549.484 758.541 544.856 761.628 539.225L765.715 531.797C767.317 528.864 771.521 528.864 773.124 531.797L777.211 539.225C780.298 544.856 784.914 549.484 790.53 552.579L797.968 556.677C800.879 558.283 800.894 562.484 797.968 564.105L790.309 568.365C784.708 571.475 780.107 576.118 777.034 581.748L773.109 588.941C771.507 591.874 767.302 591.888 765.7 588.941V588.97Z" fill="#FFB900"/>
<path fill-rule="evenodd" clip-rule="evenodd" d="M1210.16 609.988C1210.35 614.277 1211.44 617.373 1213.43 619.303C1215.41 621.234 1218.28 622.192 1222 622.192C1224.67 622.192 1226.97 621.529 1228.89 620.188C1230.49 619.082 1231.57 617.933 1232.14 616.709C1232.36 616.238 1232.86 615.943 1233.39 615.943H1242.08C1243.08 615.943 1243.75 616.96 1243.4 617.888C1241.55 622.649 1238.92 626.128 1235.51 628.324C1231.66 630.8 1227 632.053 1221.53 632.053C1217.73 632.053 1214.32 631.449 1211.27 630.24C1208.22 629.031 1205.64 627.307 1203.53 625.066C1201.42 622.826 1199.78 620.158 1198.64 617.063C1197.49 613.953 1196.92 610.548 1196.92 606.819C1196.92 603.09 1197.51 599.862 1198.68 596.767C1199.86 593.657 1201.55 590.975 1203.71 588.72C1205.89 586.45 1208.49 584.666 1211.5 583.369C1214.51 582.072 1217.85 581.409 1221.53 581.409C1225.63 581.409 1229.2 582.205 1232.24 583.782C1235.29 585.359 1237.79 587.496 1239.74 590.164C1241.7 592.832 1243.11 595.868 1243.99 599.288C1244.86 602.707 1245.17 606.274 1244.92 609.988H1210.16ZM1231.7 601.616C1231.08 598.271 1229.98 595.721 1228.39 593.981C1226.8 592.242 1224.39 591.373 1221.17 591.373C1219.06 591.373 1217.31 591.726 1215.91 592.449C1214.51 593.156 1213.4 594.04 1212.56 595.102C1211.72 596.163 1211.13 597.268 1210.8 598.447C1210.46 599.627 1210.25 600.688 1210.19 601.616H1231.7ZM1120.14 584.136V629.444C1120.14 630.225 1120.77 630.859 1121.55 630.859H1131.96C1132.73 630.859 1133.37 630.225 1133.37 629.444V602.928C1133.37 600.57 1133.7 598.654 1134.4 597.209C1135.09 595.75 1135.9 594.63 1136.87 593.864C1137.84 593.082 1138.82 592.567 1139.85 592.286C1140.88 592.006 1141.7 591.874 1142.32 591.874C1144.44 591.874 1146.04 592.228 1147.11 592.95C1148.2 593.657 1148.98 594.615 1149.45 595.794C1149.92 596.974 1150.18 598.256 1150.24 599.656C1150.3 601.056 1150.33 602.471 1150.33 603.886V629.473C1150.33 630.255 1150.96 630.888 1151.74 630.888H1162.15C1162.93 630.888 1163.56 630.255 1163.56 629.473V604.078C1163.56 602.589 1163.66 601.115 1163.89 599.656C1164.11 598.197 1164.53 596.9 1165.19 595.75C1165.84 594.601 1166.75 593.672 1167.9 592.964C1169.05 592.257 1170.56 591.889 1172.41 591.889C1174.26 591.889 1175.75 592.198 1176.84 592.817C1177.92 593.436 1178.75 594.276 1179.31 595.337C1179.87 596.399 1180.2 597.637 1180.34 599.067C1180.45 600.496 1180.53 602.014 1180.53 603.621V629.488C1180.53 630.269 1181.16 630.903 1181.94 630.903H1192.36C1193.14 630.903 1193.77 630.269 1193.77 629.488V598.683C1193.77 595.573 1193.33 592.92 1192.46 590.724C1191.6 588.513 1190.38 586.73 1188.83 585.374C1187.27 584.003 1185.42 583.016 1183.25 582.396C1181.07 581.777 1178.7 581.468 1176.16 581.468C1172.81 581.468 1169.9 582.279 1167.44 583.885C1164.99 585.492 1163.05 587.364 1161.62 589.471C1160.31 586.494 1158.4 584.416 1155.89 583.237C1153.37 582.057 1150.6 581.468 1147.55 581.468C1144.51 581.468 1141.57 582.146 1139.11 583.517C1136.66 584.887 1134.56 586.803 1132.82 589.294H1132.63V584.195C1132.63 583.413 1132 582.78 1131.22 582.78H1121.55C1120.77 582.78 1120.14 583.413 1120.14 584.195V584.136ZM1063.79 606.834C1063.79 602.987 1064.38 599.494 1065.57 596.354C1066.74 593.215 1068.42 590.547 1070.59 588.351C1072.77 586.14 1075.37 584.445 1078.43 583.237C1081.47 582.028 1084.9 581.424 1088.68 581.424C1092.45 581.424 1095.89 582.028 1098.98 583.237C1102.05 584.445 1104.69 586.155 1106.86 588.351C1109.04 590.547 1110.71 593.23 1111.89 596.354C1113.06 599.494 1113.65 602.987 1113.65 606.834C1113.65 610.681 1113.06 614.159 1111.89 617.255C1110.71 620.365 1109.02 623.018 1106.86 625.214C1104.69 627.425 1102.07 629.105 1098.98 630.284C1095.91 631.463 1092.47 632.053 1088.68 632.053C1084.88 632.053 1081.47 631.463 1078.43 630.284C1075.39 629.105 1072.77 627.41 1070.59 625.214C1068.42 623.018 1066.74 620.365 1065.57 617.255C1064.39 614.145 1063.79 610.681 1063.79 606.834ZM1077.03 606.834C1077.03 608.765 1077.22 610.637 1077.59 612.464C1077.96 614.292 1078.61 615.943 1079.5 617.402C1080.4 618.861 1081.61 620.026 1083.09 620.895C1084.57 621.765 1086.44 622.192 1088.69 622.192C1090.94 622.192 1092.81 621.765 1094.34 620.895C1095.85 620.026 1097.07 618.861 1097.97 617.402C1098.86 615.943 1099.51 614.292 1099.88 612.464C1100.25 610.637 1100.44 608.75 1100.44 606.834C1100.44 604.918 1100.25 603.017 1099.88 601.159C1099.51 599.302 1098.86 597.652 1097.97 596.222C1097.07 594.792 1095.85 593.628 1094.34 592.729C1092.81 591.83 1090.94 591.373 1088.69 591.373C1086.44 591.373 1084.59 591.83 1083.09 592.729C1081.61 593.628 1080.4 594.792 1079.5 596.222C1078.61 597.652 1077.96 599.288 1077.59 601.159C1077.22 603.017 1077.03 604.918 1077.03 606.834ZM943.418 584.18V629.488C943.418 630.269 944.05 630.903 944.829 630.903H955.237C956.016 630.903 956.648 630.269 956.648 629.488V605.67C956.648 600.762 957.457 597.239 959.074 595.102C960.691 592.964 963.293 591.889 966.91 591.889C970.085 591.889 972.29 592.861 973.525 594.822C974.76 596.782 975.392 599.745 975.392 603.709V629.488C975.392 630.269 976.024 630.903 976.803 630.903H987.211C987.991 630.903 988.623 630.269 988.623 629.488V601.292C988.623 598.315 988.358 595.603 987.829 593.141C987.3 590.695 986.388 588.616 985.08 586.907C983.771 585.197 981.993 583.87 979.714 582.898C977.45 581.94 974.539 581.453 970.996 581.453C968.203 581.453 965.469 582.087 962.793 583.355C960.118 584.622 957.942 586.656 956.266 589.457H955.987V584.165C955.987 583.384 955.355 582.75 954.576 582.75H944.814C944.035 582.75 943.403 583.384 943.403 584.165L943.418 584.18ZM1011.09 565.815V629.459C1011.09 630.24 1011.72 630.874 1012.5 630.874H1022.9C1023.68 630.874 1024.32 630.24 1024.32 629.459V605.64C1024.32 600.732 1025.12 597.209 1026.74 595.072C1028.36 592.935 1030.96 591.859 1034.58 591.859C1037.75 591.859 1039.96 592.832 1041.19 594.792C1042.43 596.752 1043.06 599.715 1043.06 603.68V629.459C1043.06 630.24 1043.69 630.874 1044.47 630.874H1054.88C1055.66 630.874 1056.29 630.24 1056.29 629.459V601.263C1056.29 598.285 1056.03 595.573 1055.5 593.112C1054.97 590.665 1054.06 588.587 1052.75 586.877C1051.44 585.167 1049.66 583.841 1047.38 582.868C1045.12 581.91 1042.21 581.424 1038.66 581.424C1035.87 581.424 1033.14 582.057 1030.46 583.325C1027.79 584.593 1025.61 586.627 1023.93 589.427H1023.65V565.8C1023.65 565.019 1023.02 564.385 1022.24 564.385H1012.48C1011.7 564.385 1011.07 565.019 1011.07 565.8H1011.09V565.815ZM918.72 630.933H930.54C931.319 630.933 931.951 630.299 931.951 629.518V582.912C931.951 582.131 931.319 581.497 930.54 581.497H918.72C917.941 581.497 917.309 582.131 917.309 582.912V629.518C917.309 630.299 917.941 630.933 918.72 630.933ZM1133.06 534.406C1133.25 538.695 1134.34 541.79 1136.32 543.721C1138.31 545.652 1141.17 546.61 1144.89 546.61C1147.57 546.61 1149.86 545.946 1151.79 544.605C1153.37 543.5 1154.46 542.335 1155.04 541.127C1155.26 540.655 1155.76 540.36 1156.29 540.36H1164.97C1165.97 540.36 1166.65 541.377 1166.3 542.306C1164.44 547.067 1161.81 550.545 1158.42 552.741C1154.57 555.217 1149.9 556.47 1144.44 556.47C1140.64 556.47 1137.23 555.866 1134.19 554.657C1131.15 553.449 1128.56 551.724 1126.46 549.484C1124.34 547.243 1122.71 544.576 1121.56 541.48C1120.42 538.37 1119.84 534.966 1119.84 531.237C1119.84 527.508 1120.43 524.28 1121.61 521.185C1122.78 518.075 1124.47 515.392 1126.63 513.137C1128.81 510.867 1131.4 509.084 1134.41 507.787C1137.42 506.49 1140.76 505.826 1144.44 505.826C1148.54 505.826 1152.11 506.622 1155.15 508.199C1158.2 509.776 1160.7 511.914 1162.65 514.581C1164.61 517.249 1166.02 520.285 1166.88 523.705C1167.75 527.124 1168.06 530.691 1167.81 534.406H1133.06ZM1154.59 526.019C1153.98 522.673 1152.87 520.123 1151.29 518.384C1149.7 516.645 1147.29 515.775 1144.07 515.775C1141.95 515.775 1140.2 516.129 1138.81 516.851C1137.41 517.559 1136.29 518.443 1135.45 519.504C1134.62 520.565 1134.03 521.671 1133.69 522.85C1133.35 524.029 1133.15 525.09 1133.09 526.019H1154.59ZM1111.54 552.181C1111.54 554.112 1111.27 556.308 1110.74 558.784C1110.21 561.26 1109.08 563.575 1107.35 565.726C1105.61 567.864 1103.08 569.677 1099.79 571.18C1096.5 572.669 1092.09 573.42 1086.56 573.42C1084.19 573.42 1081.8 573.125 1079.34 572.536C1076.89 571.946 1074.65 571.033 1072.62 569.794C1070.61 568.556 1068.93 566.95 1067.6 565.004C1066.54 563.457 1065.85 561.658 1065.51 559.624C1065.36 558.755 1066.04 557.974 1066.9 557.974H1077.4C1077.99 557.974 1078.53 558.327 1078.72 558.887C1079.4 560.892 1080.52 562.307 1082.09 563.147C1083.9 564.105 1085.97 564.591 1088.34 564.591C1092.07 564.591 1094.79 563.471 1096.5 561.246C1098.2 559.005 1099.03 556.19 1098.97 552.771V546.433H1098.78C1097.35 548.983 1095.31 550.855 1092.67 552.063C1090.03 553.272 1087.25 553.876 1084.34 553.876C1080.74 553.876 1077.62 553.242 1075.02 551.975C1072.4 550.707 1070.27 548.968 1068.58 546.757C1066.9 544.561 1065.67 541.982 1064.91 539.034C1064.13 536.086 1063.74 532.961 1063.74 529.674C1063.74 526.564 1064.2 523.572 1065.1 520.683C1065.99 517.795 1067.32 515.245 1069.07 513.048C1070.8 510.838 1072.96 509.098 1075.55 507.787C1078.12 506.49 1081.09 505.826 1084.46 505.826C1087.63 505.826 1090.41 506.416 1092.79 507.595C1095.19 508.774 1097.19 510.764 1098.81 513.55H1099V508.538C1099 507.757 1099.63 507.123 1100.41 507.123H1110.17C1110.95 507.123 1111.58 507.757 1111.58 508.538V552.181H1111.54ZM1087.68 543.898C1089.54 543.898 1091.19 543.529 1092.62 542.777C1094.04 542.026 1095.23 541.038 1096.16 539.8C1097.09 538.562 1097.79 537.147 1098.26 535.57C1098.73 533.993 1098.97 532.327 1098.97 530.588C1098.97 528.598 1098.78 526.726 1098.41 524.958C1098.04 523.189 1097.41 521.627 1096.54 520.256C1095.67 518.885 1094.53 517.809 1093.09 516.999C1091.66 516.188 1089.85 515.79 1087.68 515.79C1085.81 515.79 1084.21 516.158 1082.88 516.91C1081.55 517.662 1080.43 518.664 1079.53 519.932C1078.64 521.199 1077.97 522.658 1077.58 524.309C1077.18 525.96 1076.97 527.67 1076.97 529.483C1076.97 531.296 1077.15 532.946 1077.49 534.656C1077.83 536.366 1078.42 537.899 1079.25 539.27C1080.09 540.64 1081.19 541.746 1082.56 542.615C1083.93 543.485 1085.63 543.912 1087.69 543.912H1087.68V543.898ZM1041.72 531.694C1041.16 532.195 1040.46 532.578 1039.62 532.858C1038.78 533.138 1037.88 533.374 1036.91 533.551C1035.94 533.742 1034.94 533.89 1033.89 534.022C1032.83 534.14 1031.77 534.302 1030.71 534.494C1029.73 534.686 1028.74 534.936 1027.77 535.246C1026.82 535.555 1025.96 535.968 1025.26 536.499C1024.55 537.029 1023.96 537.692 1023.54 538.503C1023.11 539.314 1022.89 540.331 1022.89 541.569C1022.89 542.807 1023.11 543.736 1023.54 544.546C1023.98 545.357 1024.57 545.991 1025.3 546.448C1026.05 546.919 1026.92 547.243 1027.92 547.42C1028.92 547.612 1029.93 547.7 1030.99 547.7C1033.61 547.7 1035.62 547.273 1037.05 546.403C1038.47 545.534 1039.53 544.502 1040.22 543.279C1040.9 542.07 1041.32 540.847 1041.47 539.594C1041.63 538.356 1041.71 537.353 1041.71 536.616V531.679L1041.72 531.694ZM1012.7 521.936C1011.84 521.936 1011.19 521.155 1011.31 520.3C1011.63 517.912 1012.36 515.878 1013.48 514.213C1014.85 512.164 1016.58 510.513 1018.7 509.275C1020.82 508.037 1023.18 507.153 1025.83 506.622C1028.48 506.092 1031.12 505.826 1033.8 505.826C1036.22 505.826 1038.68 506.003 1041.16 506.342C1043.65 506.681 1045.91 507.344 1047.97 508.347C1050.01 509.334 1051.7 510.72 1053 512.488C1054.31 514.257 1054.95 516.601 1054.95 519.519V544.561C1054.95 546.728 1055.07 548.806 1055.32 550.796C1055.44 551.783 1055.61 552.653 1055.83 553.404C1056.1 554.333 1055.45 555.262 1054.5 555.262H1044.25C1043.63 555.262 1043.06 554.864 1042.9 554.259C1042.78 553.832 1042.68 553.419 1042.6 552.992C1042.44 552.211 1042.34 551.429 1042.28 550.619C1040.16 552.785 1037.68 554.318 1034.83 555.173C1031.98 556.043 1029.05 556.47 1026.07 556.47C1023.76 556.47 1021.63 556.19 1019.63 555.63C1017.64 555.07 1015.89 554.2 1014.41 553.021C1012.92 551.842 1011.75 550.353 1010.91 548.555C1010.07 546.757 1009.64 544.62 1009.64 542.129C1009.64 539.402 1010.13 537.147 1011.09 535.378C1012.04 533.61 1013.29 532.195 1014.82 531.148C1016.33 530.087 1018.08 529.306 1020.04 528.775C1021.99 528.245 1023.96 527.832 1025.96 527.522C1027.95 527.213 1029.9 526.962 1031.84 526.771C1033.77 526.579 1035.47 526.299 1036.97 525.931C1038.46 525.562 1039.65 525.017 1040.52 524.295C1041.38 523.587 1041.8 522.541 1041.74 521.17C1041.74 519.74 1041.5 518.605 1041.03 517.765C1040.56 516.925 1039.94 516.276 1039.16 515.805C1038.38 515.333 1037.49 515.024 1036.46 514.876C1035.43 514.714 1034.33 514.64 1033.15 514.64C1030.53 514.64 1028.49 515.2 1026.99 516.321C1025.73 517.264 1024.9 518.753 1024.54 520.772C1024.42 521.435 1023.83 521.907 1023.15 521.907H1012.7V521.936ZM995.664 507.138V494.123C995.664 493.342 995.032 492.708 994.253 492.708H983.845C983.066 492.708 982.434 493.342 982.434 494.123V507.138H975.833C975.054 507.138 974.422 507.772 974.422 508.553V514.567C974.422 515.348 975.054 515.982 975.833 515.982H982.434V544.384C982.434 546.801 982.831 548.762 983.639 550.25C984.448 551.739 985.55 552.889 986.947 553.699C988.343 554.51 989.96 555.055 991.798 555.335C993.636 555.615 995.576 555.748 997.62 555.748C998.928 555.748 1000.27 555.718 1001.63 555.66C1002.5 555.615 1003.32 555.556 1004.09 555.468C1004.81 555.38 1005.35 554.79 1005.35 554.053V545.047C1004.73 545.165 1004.07 545.268 1003.4 545.327C1002.72 545.386 1002 545.416 1001.25 545.416C999.016 545.416 997.517 545.047 996.782 544.296C996.032 543.544 995.664 542.055 995.664 539.83V515.996H1003.94C1004.72 515.996 1005.35 515.363 1005.35 514.581V508.568C1005.35 507.787 1004.72 507.153 1003.94 507.153H995.664V507.138ZM928.408 533.197H917.015C916.236 533.197 915.574 533.846 915.604 534.627C915.721 538.12 916.456 541.186 917.824 543.809C919.382 546.787 921.469 549.233 924.116 551.164C926.762 553.095 929.805 554.495 933.245 555.394C936.699 556.293 940.257 556.75 943.918 556.75C948.46 556.75 952.444 556.22 955.899 555.173C959.353 554.112 962.235 552.638 964.572 550.751C966.91 548.865 968.659 546.61 969.835 544.001C971.011 541.392 971.599 538.577 971.599 535.526C971.599 531.797 970.805 528.746 969.218 526.358C967.63 523.97 965.748 522.054 963.572 520.639C961.397 519.209 959.206 518.178 957.001 517.514C954.796 516.866 953.076 516.409 951.827 516.158C947.666 515.097 944.285 514.228 941.712 513.55C939.14 512.872 937.111 512.179 935.656 511.501C934.2 510.823 933.215 510.071 932.716 509.261C932.216 508.45 931.966 507.403 931.966 506.092C931.966 504.662 932.275 503.483 932.892 502.554C933.509 501.626 934.303 500.844 935.273 500.225C936.244 499.606 937.302 499.164 938.493 498.928C939.669 498.678 940.86 498.56 942.036 498.56C943.844 498.56 945.505 498.722 947.019 499.032C948.548 499.341 949.901 499.872 951.077 500.609C952.253 501.36 953.208 502.377 953.914 503.674C954.487 504.706 954.87 505.959 955.061 507.433C955.149 508.111 955.766 508.612 956.457 508.612H967.895C968.718 508.612 969.35 507.905 969.306 507.094C969.129 503.895 968.424 501.124 967.159 498.796C965.704 496.098 963.72 493.873 961.235 492.134C958.751 490.394 955.913 489.141 952.709 488.36C949.504 487.579 946.167 487.196 942.683 487.196C939.698 487.196 936.714 487.594 933.73 488.405C930.746 489.215 928.07 490.453 925.718 492.134C923.351 493.814 921.44 495.907 919.985 498.412C918.529 500.933 917.794 503.895 917.794 507.3C917.794 510.336 918.368 512.931 919.514 515.068C920.661 517.205 922.175 518.988 924.042 520.418C925.909 521.848 928.026 523.012 930.378 523.911C932.745 524.81 935.171 525.577 937.655 526.196C940.081 526.874 942.477 527.493 944.829 528.053C947.196 528.613 949.298 529.262 951.165 530.013C953.032 530.765 954.532 531.694 955.693 532.814C956.84 533.934 957.413 535.393 957.413 537.191C957.413 538.872 956.972 540.242 956.104 541.333C955.237 542.424 954.149 543.279 952.841 543.898C951.533 544.517 950.136 544.944 948.651 545.15C947.166 545.372 945.755 545.475 944.461 545.475C942.536 545.475 940.669 545.239 938.875 544.782C937.067 544.31 935.509 543.603 934.171 542.645C932.833 541.687 931.76 540.419 930.951 538.872C930.305 537.619 929.922 536.16 929.79 534.479C929.731 533.757 929.114 533.197 928.394 533.197H928.408Z" fill="#aaa"/>
<path d="M0 100H350C358.837 100 366 107.163 366 116V195C366 203.837 358.837 211 350 211H0V100Z" fill="#FF2BC2"/>
<path d="M210.8 172L201.9 137H208.7L216.1 167.75H216.8L224.2 137H231L222.1 172H210.8ZM259.168 172.7C256.434 172.7 254.068 172.217 252.068 171.25C250.101 170.283 248.584 168.917 247.518 167.15C246.451 165.383 245.918 163.333 245.918 161V160.5H252.418V160.95C252.418 162.617 252.968 164.05 254.068 165.25C255.201 166.417 256.868 167 259.068 167C261.268 167 262.951 166.417 264.118 165.25C265.318 164.05 265.918 162.5 265.918 160.6V160.1C265.918 158.233 265.318 156.75 264.118 155.65C262.951 154.55 261.484 154 259.718 154C258.751 154 257.951 154.133 257.318 154.4C256.684 154.667 256.168 155 255.768 155.4C255.368 155.8 255.034 156.2 254.768 156.6H247.018V137H270.918V142.8H253.418V151.35H254.318C254.651 150.917 255.101 150.5 255.668 150.1C256.234 149.7 256.968 149.367 257.868 149.1C258.768 148.833 259.834 148.7 261.068 148.7C263.134 148.7 265.018 149.133 266.718 150C268.418 150.867 269.768 152.15 270.768 153.85C271.801 155.517 272.318 157.583 272.318 160.05V160.65C272.318 163.117 271.784 165.25 270.718 167.05C269.684 168.85 268.184 170.25 266.218 171.25C264.251 172.217 261.901 172.7 259.168 172.7ZM281.498 172.7C280.131 172.7 278.981 172.267 278.048 171.4C277.148 170.5 276.698 169.35 276.698 167.95C276.698 166.55 277.148 165.417 278.048 164.55C278.981 163.65 280.131 163.2 281.498 163.2C282.831 163.2 283.948 163.65 284.848 164.55C285.748 165.417 286.198 166.55 286.198 167.95C286.198 169.35 285.748 170.5 284.848 171.4C283.948 172.267 282.831 172.7 281.498 172.7ZM304.505 172.7C300.371 172.7 297.055 171.567 294.555 169.3C292.055 167 290.805 163.533 290.805 158.9V150.1C290.805 145.6 292.055 142.183 294.555 139.85C297.055 137.483 300.371 136.3 304.505 136.3C308.671 136.3 311.988 137.483 314.455 139.85C316.955 142.183 318.205 145.6 318.205 150.1V158.9C318.205 163.533 316.955 167 314.455 169.3C311.988 171.567 308.671 172.7 304.505 172.7ZM304.505 167C307.005 167 308.838 166.317 310.005 164.95C311.205 163.583 311.805 161.633 311.805 159.1V149.8C311.805 147.233 311.138 145.3 309.805 144C308.505 142.667 306.738 142 304.505 142C302.205 142 300.405 142.683 299.105 144.05C297.838 145.417 297.205 147.333 297.205 149.8V159.1C297.205 161.733 297.805 163.717 299.005 165.05C300.238 166.35 302.071 167 304.505 167Z" fill="white"/>
</svg>
