<svg width="1920" height="1080" viewBox="0 0 1920 1080" fill="none" xmlns="http://www.w3.org/2000/svg">
<rect width="1920" height="1080" fill="#5700BE"/>
<g clip-path="url(#clip0_23_119)">
<path d="M1185 649.891C1185 651.611 1183.61 653 1181.89 653H1166.78V652.439C1166.78 649.891 1167.47 647.647 1168.2 646.323C1168.57 645.66 1169.06 645.035 1169.69 644.4C1170.31 643.775 1170.81 643.343 1171.21 643.076C1171.57 642.809 1172.07 642.515 1172.69 642.147C1175.77 640.326 1177.32 638.679 1177.32 637.19C1177.32 636.297 1176.82 635.672 1176.06 635.672C1175.13 635.672 1174.34 636.463 1174.38 637.916H1167.14C1167.18 635.341 1168.07 633.253 1169.75 631.699C1171.43 630.144 1173.62 629.381 1176.24 629.381C1178.85 629.381 1180.73 630.071 1182.35 631.459C1183.94 632.848 1184.73 634.633 1184.73 636.785C1184.73 638.937 1183.97 640.721 1182.55 642.138C1181.14 643.563 1180.11 644.253 1178.39 645.274C1176.83 646.102 1175.9 646.599 1175.67 646.764H1181.89C1183.61 646.764 1185 648.153 1185 649.873V649.891Z" fill="white"/>
<path d="M1109.72 622.869C1108.93 628.755 1106.35 633.511 1101.99 637.153C1097.55 640.786 1092.2 642.644 1085.92 642.644C1078.85 642.644 1073.09 640.399 1068.53 635.902C1063.97 631.469 1061.71 625.785 1061.71 618.905C1061.71 612.025 1063.96 606.341 1068.53 601.908C1073.1 597.475 1078.85 595.231 1085.92 595.231C1092.2 595.231 1097.55 597.015 1101.99 600.657C1104.02 602.35 1105.67 604.281 1106.92 606.461C1109.09 610.223 1106.39 614.941 1102.05 614.941C1099.98 614.941 1098.08 613.81 1097.1 611.988C1095.02 608.07 1090.91 605.55 1085.92 605.55C1082.15 605.55 1079.11 606.81 1076.73 609.257C1074.35 611.768 1073.16 614.941 1073.16 618.85C1073.16 622.759 1074.35 625.987 1076.73 628.507C1079.11 631.082 1082.16 632.342 1085.92 632.342C1092 632.342 1096.83 628.507 1098.22 622.887H1109.72V622.869Z" fill="white"/>
<path d="M1143.6 595.231C1150.67 595.231 1156.42 597.475 1160.99 601.908C1165.55 606.341 1167.8 612.025 1167.8 618.905C1167.8 625.785 1165.56 631.469 1160.99 635.902C1156.42 640.399 1150.67 642.644 1143.6 642.644C1136.52 642.644 1130.77 640.399 1126.2 635.902C1121.64 631.469 1119.39 625.785 1119.39 618.905C1119.39 612.025 1121.63 606.341 1126.2 601.908C1130.77 597.475 1136.52 595.231 1143.6 595.231ZM1143.6 605.55C1139.89 605.55 1136.85 606.81 1134.47 609.257C1132.03 611.768 1130.84 614.941 1130.84 618.85C1130.84 622.759 1132.03 625.987 1134.47 628.507C1136.85 631.082 1139.9 632.342 1143.6 632.342C1147.29 632.342 1150.34 631.082 1152.78 628.507C1155.17 625.996 1156.35 622.759 1156.35 618.85C1156.35 614.941 1155.17 611.777 1152.78 609.257C1150.34 606.81 1147.29 605.55 1143.6 605.55Z" fill="white"/>
<path d="M771.76 595.893V605.808H758.995V639.241C758.995 642.349 756.475 644.86 753.376 644.86C750.267 644.86 747.756 642.34 747.756 639.241V605.808H735V595.893H771.76Z" fill="white"/>
<path d="M817.157 642.644C814.122 642.644 811.63 640.28 811.482 637.245C811.436 636.408 811.4 634.807 811.354 633.777C811.151 629.215 809.174 626.3 806.001 626.3H795.618V640.915H784.379V595.884H806.792C811.62 595.884 815.52 597.144 818.426 599.59C821.332 602.037 822.795 605.339 822.795 609.505C822.795 614.858 820.146 619.089 815.456 621.278C819.953 622.86 822.335 626.567 822.666 632.324C822.721 633.658 822.776 635.525 822.841 636.61C823.034 639.884 820.44 642.644 817.166 642.644H817.157ZM805.532 617.25C809.036 617.25 811.28 615.005 811.28 611.501C811.28 607.997 809.036 605.817 805.532 605.817H795.618V617.259H805.532V617.25Z" fill="white"/>
<path d="M939.844 622.869C939.053 628.755 936.469 633.52 932.11 637.153C927.677 640.786 922.324 642.644 916.042 642.644C908.97 642.644 903.213 640.399 898.651 635.902C894.089 631.469 891.836 625.785 891.836 618.905C891.836 612.025 894.08 606.341 898.651 601.908C903.213 597.475 908.97 595.231 916.042 595.231C922.324 595.231 927.677 597.015 932.11 600.657C934.142 602.35 935.788 604.281 937.039 606.461C939.21 610.223 936.515 614.941 932.174 614.941C930.105 614.941 928.201 613.81 927.226 611.988C925.138 608.07 921.027 605.55 916.042 605.55C912.272 605.55 909.227 606.81 906.855 609.257C904.473 611.768 903.286 614.941 903.286 618.85C903.286 622.759 904.473 625.987 906.855 628.507C909.237 631.082 912.281 632.342 916.042 632.342C922.122 632.342 926.95 628.507 928.339 622.887H939.844V622.869Z" fill="white"/>
<path d="M989.84 595.893L973.11 618.307L988.911 640.924H975.952L961.807 619.898V637.024C961.807 640.133 959.287 642.644 956.188 642.644C953.079 642.644 950.568 640.124 950.568 637.024V595.893H961.807V616.79L976.955 595.893H989.849H989.84Z" fill="white"/>
<path d="M1031.64 599.59C1035.01 602.497 1036.67 606.268 1036.73 610.83H1025.83C1025.76 606.93 1022.92 604.345 1018.69 604.345C1014.92 604.345 1012.28 606.194 1012.28 609.11C1012.28 613.479 1018.69 613.8 1025.17 615.327C1029.67 616.449 1033.57 617.571 1036.16 621.214C1037.42 623.062 1038.08 625.316 1038.08 628.029C1038.08 632.527 1036.29 636.095 1032.72 638.68C1029.09 641.328 1024.46 642.644 1018.71 642.644C1012.96 642.644 1008.59 641.191 1005.09 638.348C1004.05 637.512 1003.16 636.583 1002.41 635.562C999.763 631.947 1002.33 626.842 1006.82 626.842C1008.8 626.842 1010.68 627.891 1011.59 629.657C1012.79 632.011 1015.54 633.52 1019.23 633.52C1023.53 633.52 1026.64 631.469 1026.64 628.498C1026.57 624.267 1020.23 624 1013.74 622.345C1009.24 621.158 1005.35 620.165 1002.76 616.523C1001.5 614.739 1000.84 612.494 1000.84 609.846C1000.84 605.412 1002.49 601.844 1005.87 599.204C1009.24 596.555 1013.6 595.24 1018.96 595.24C1024.31 595.24 1028.28 596.693 1031.65 599.609L1031.64 599.59Z" fill="white"/>
<path d="M880.083 635.093L864.982 595.893H851.361L834.751 640.924H846.854L847.378 639.342L851.995 625.518H851.959L858.176 606.737L862.903 621.168L869.387 638.505L869.479 638.79C870.242 641.089 872.394 642.644 874.813 642.644C878.713 642.644 881.435 638.762 880.092 635.093H880.083Z" fill="white"/>
<path d="M1004.26 442.102C991.541 432.62 975.778 427 958.736 427C937.693 427 918.609 435.563 904.786 449.387L918.526 463.128C928.827 452.826 943.055 446.443 958.736 446.443C971.418 446.443 983.154 450.619 992.617 457.664C996.499 460.552 1001.89 460.175 1005.31 456.763C1009.49 452.578 1009.01 445.643 1004.27 442.102H1004.26Z" fill="#64EBD1"/>
<path d="M932.828 466.052C927.466 469.308 926.509 476.703 930.951 481.136C934.106 484.291 939.036 485.027 942.852 482.709C944.775 481.541 946.844 480.594 949.014 479.858V509.897C949.014 515.268 953.365 519.618 958.736 519.618C964.107 519.618 968.457 515.268 968.457 509.897V479.858C973 481.385 977.084 483.942 980.395 487.253L994.135 473.512C985.067 464.443 972.54 458.823 958.726 458.823C949.254 458.823 940.388 461.463 932.828 466.052Z" fill="#64EBD1"/>
</g>
<defs>
<clipPath id="clip0_23_119">
<rect width="450" height="226" fill="white" transform="translate(735 427)"/>
</clipPath>
</defs>
</svg>
